<?xml version="1.0" standalone="no"?>
<!DOCTYPE svg PUBLIC "-//W3C//DTD SVG 20010904//EN"
 "http://www.w3.org/TR/2001/REC-SVG-20010904/DTD/svg10.dtd">
<svg version="1.0" xmlns="http://www.w3.org/2000/svg"
 width="256.000000pt" height="256.000000pt" viewBox="0 0 256.000000 256.000000"
 preserveAspectRatio="xMidYMid meet">
<metadata>
Created by potrace 1.11, written by Peter Selinger 2001-2013
</metadata>
<g transform="translate(0.000000,256.000000) scale(0.100000,-0.100000)"
fill="#000000" stroke="none">
<path d="M1333 2432 c-27 -38 -75 -107 -108 -155 -61 -89 -78 -101 -150 -112
-38 -5 -50 1 -215 105 -96 60 -184 110 -196 110 -30 0 -31 -16 -21 -214 5
-105 4 -173 -2 -179 -6 -6 -93 2 -236 21 -125 16 -235 27 -246 25 -11 -3 -19
-14 -19 -27 0 -12 47 -98 105 -191 58 -92 104 -174 101 -180 -2 -7 -67 -34
-143 -59 -76 -26 -143 -50 -150 -54 -31 -20 5 -56 173 -177 95 -69 175 -133
177 -143 3 -9 13 -50 22 -89 l17 -73 -80 -142 c-93 -167 -93 -168 -74 -188 13
-12 46 -14 193 -11 160 2 178 1 187 -15 6 -10 8 -108 4 -254 -3 -131 -2 -249
1 -262 15 -57 49 -41 218 94 21 17 44 28 52 25 7 -3 23 -43 36 -88 27 -101 45
-131 73 -127 13 2 71 69 162 188 l141 185 64 11 c75 14 72 16 301 -135 85 -55
165 -101 176 -101 43 0 44 13 27 258 -14 199 -14 234 -2 250 8 11 38 54 67 95
29 42 60 81 70 86 9 5 71 23 137 41 142 38 150 42 167 78 10 20 29 33 73 48
61 22 82 41 73 66 -4 8 -83 70 -177 137 -94 67 -177 132 -185 144 -8 12 -17
38 -20 58 -6 33 3 50 128 242 74 113 139 215 145 226 13 23 6 47 -16 55 -12 5
-374 -24 -481 -38 -61 -9 -68 8 -76 199 -5 132 -10 173 -22 186 -21 23 -29 19
-152 -65 -63 -43 -106 -66 -111 -60 -5 5 -30 61 -56 124 -42 104 -71 150 -96
150 -5 0 -30 -31 -56 -68z"/>
</g>
</svg>
